<svg width="70" height="70" viewBox="0 0 70 70" fill="none" xmlns="http://www.w3.org/2000/svg">
<rect width="70" height="70" rx="35" fill="url(#paint0_linear_608_505)"/>
<path d="M28.6667 19.5C29.9193 19.5 31.1438 19.8666 32.1853 20.5533C33.2268 21.2401 34.0385 22.2162 34.5179 23.3582C34.9973 24.5003 35.1227 25.7569 34.8783 26.9693C34.6339 28.1817 34.0307 29.2953 33.145 30.1694C32.2593 31.0435 31.1308 31.6388 29.9022 31.8799C28.6737 32.1211 27.4003 31.9973 26.243 31.5242C25.0857 31.0512 24.0966 30.2501 23.4007 29.2223C22.7048 28.1945 22.3333 26.9861 22.3333 25.75C22.3333 24.0924 23.0006 22.5027 24.1883 21.3306C25.3761 20.1585 26.987 19.5 28.6667 19.5ZM28.6667 17C26.913 17 25.1987 17.5132 23.7406 18.4746C22.2825 19.4361 21.146 20.8027 20.4749 22.4015C19.8038 24.0004 19.6282 25.7597 19.9704 27.457C20.3125 29.1544 21.157 30.7135 22.397 31.9372C23.637 33.1609 25.2169 33.9943 26.9369 34.3319C28.6568 34.6695 30.4396 34.4962 32.0598 33.8339C33.68 33.1717 35.0647 32.0502 36.039 30.6112C37.0133 29.1723 37.5333 27.4806 37.5333 25.75C37.5333 23.4294 36.5992 21.2038 34.9363 19.5628C33.2735 17.9219 31.0183 17 28.6667 17ZM41.3333 52H38.8V45.75C38.8 44.0924 38.1327 42.5027 36.945 41.3306C35.7573 40.1585 34.1464 39.5 32.4667 39.5H24.8667C23.187 39.5 21.5761 40.1585 20.3883 41.3306C19.2006 42.5027 18.5333 44.0924 18.5333 45.75V52H16V45.75C16 43.4294 16.9342 41.2038 18.597 39.5628C20.2598 37.9219 22.5151 37 24.8667 37H32.4667C34.8183 37 37.0735 37.9219 38.7363 39.5628C40.3992 41.2038 41.3333 43.4294 41.3333 45.75V52ZM41.3333 19.5H54V22H41.3333V19.5ZM41.3333 25.75H54V28.25H41.3333V25.75ZM41.3333 32H50.2V34.5H41.3333V32Z" fill="white"/>
<defs>
<linearGradient id="paint0_linear_608_505" x1="1.3248e-07" y1="32.8089" x2="70.0221" y2="32.8089" gradientUnits="userSpaceOnUse">
<stop stop-color="#C90000"/>
<stop offset="1" stop-color="#620000"/>
</linearGradient>
</defs>
</svg>
