<svg width="78" height="78" viewBox="0 0 78 78" fill="none" xmlns="http://www.w3.org/2000/svg">
<rect width="78" height="78" rx="10" fill="url(#paint0_linear_533_103)"/>
<path d="M17.6429 37.1801H39.5V40.8161H17.6429V37.1801ZM14 28.0901H32.2143V31.7261H14V28.0901Z" fill="white"/>
<path d="M64.8524 38.2818L59.3881 25.5557C59.2479 25.2286 59.0145 24.9498 58.7169 24.754C58.4194 24.5581 58.0707 24.4538 57.7142 24.454H52.2499V20.818C52.2499 20.3358 52.058 19.8734 51.7165 19.5325C51.3749 19.1915 50.9116 19 50.4285 19H21.2856V22.636H48.6071V45.4629C47.7771 45.9439 47.0508 46.5842 46.4699 47.3468C45.8891 48.1094 45.4653 48.9792 45.2229 49.9061H33.777C33.3337 48.1923 32.2794 46.6988 30.8117 45.7054C29.344 44.712 27.5637 44.287 25.8046 44.51C24.0454 44.7331 22.4281 45.5888 21.2559 46.9169C20.0836 48.2449 19.4369 49.9541 19.4369 51.7241C19.4369 53.4941 20.0836 55.2033 21.2559 56.5313C22.4281 57.8594 24.0454 58.7151 25.8046 58.9382C27.5637 59.1612 29.344 58.7362 30.8117 57.7428C32.2794 56.7494 33.3337 55.2559 33.777 53.5421H45.2229C45.6191 55.1024 46.5252 56.4863 47.798 57.4748C49.0707 58.4633 50.6373 59 52.2499 59C53.8626 59 55.4292 58.4633 56.7019 57.4748C57.9746 56.4863 58.8808 55.1024 59.277 53.5421H63.1785C63.6616 53.5421 64.1249 53.3506 64.4665 53.0096C64.8081 52.6687 65 52.2063 65 51.7241V38.9981C65 38.7518 64.9498 38.5081 64.8524 38.2818ZM26.7499 55.3601C26.0294 55.3601 25.3251 55.1469 24.726 54.7473C24.127 54.3478 23.6601 53.7799 23.3843 53.1156C23.1086 52.4512 23.0365 51.7201 23.177 51.0148C23.3176 50.3094 23.6645 49.6616 24.174 49.1531C24.6835 48.6446 25.3326 48.2983 26.0392 48.158C26.7459 48.0177 27.4783 48.0897 28.144 48.3649C28.8096 48.6401 29.3786 49.1061 29.7788 49.704C30.1791 50.302 30.3928 51.005 30.3928 51.7241C30.3918 52.6881 30.0077 53.6124 29.3247 54.2941C28.6418 54.9758 27.7158 55.3592 26.7499 55.3601ZM52.2499 28.09H56.5121L60.4172 37.1801H52.2499V28.09ZM52.2499 55.3601C51.5295 55.3601 50.8251 55.1469 50.2261 54.7473C49.627 54.3478 49.1601 53.7799 48.8844 53.1156C48.6087 52.4512 48.5365 51.7201 48.6771 51.0148C48.8176 50.3094 49.1646 49.6616 49.674 49.1531C50.1835 48.6446 50.8326 48.2983 51.5393 48.158C52.2459 48.0177 52.9784 48.0897 53.644 48.3649C54.3097 48.6401 54.8786 49.1061 55.2789 49.704C55.6791 50.302 55.8928 51.005 55.8928 51.7241C55.8918 52.6881 55.5077 53.6124 54.8248 54.2941C54.1418 54.9758 53.2158 55.3592 52.2499 55.3601ZM61.3571 49.9061H59.277C58.8758 48.3489 57.9682 46.9685 56.6965 45.9815C55.4248 44.9945 53.8609 44.4566 52.2499 44.4521V40.8161H61.3571V49.9061Z" fill="white"/>
<defs>
<linearGradient id="paint0_linear_533_103" x1="1.47621e-07" y1="36.5585" x2="78.0246" y2="36.5585" gradientUnits="userSpaceOnUse">
<stop stop-color="#C90000"/>
<stop offset="1" stop-color="#620000"/>
</linearGradient>
</defs>
</svg>
