<svg width="70" height="70" viewBox="0 0 70 70" fill="none" xmlns="http://www.w3.org/2000/svg">
<rect width="70" height="70" rx="35" fill="url(#paint0_linear_608_531)"/>
<path d="M50.5154 32.5464C50.2602 30.3311 48.8029 28.5222 46.8355 27.7468C47.892 26.713 48.5843 25.2732 48.5843 23.6855C48.5843 20.5472 46.0702 18 42.9735 18C40.6053 18 38.5647 19.5138 37.7634 21.6551C37.0711 21.3229 36.3061 21.1383 35.5045 21.1383C34.7029 21.1383 33.9379 21.3229 33.209 21.6551C32.4072 19.5138 30.4035 18 27.9987 18C24.9016 18 22.4242 20.5475 22.4242 23.6855C22.4242 25.2729 23.0799 26.713 24.1366 27.7468C22.1692 28.5222 20.7116 30.3311 20.4567 32.5464L20.0193 36.5706C19.8737 37.6044 20.5658 38.6013 21.5859 38.7859C22.0596 38.8967 22.5697 38.9706 23.0432 39.0445L23.5169 47.6098C23.5899 48.9022 24.6463 49.8619 25.8851 49.8619H30.0749C30.3665 49.8619 30.658 49.788 30.9129 49.6773L30.9858 50.711C31.0588 51.9663 32.1152 53 33.354 53H37.5805C38.8558 53 39.876 52.0031 39.9486 50.711L40.0216 49.6773C40.2767 49.788 40.568 49.8619 40.8595 49.8619H45.086C46.3614 49.8619 47.3815 48.865 47.4542 47.6098L47.9642 39.0445C48.4743 38.9706 48.9481 38.8598 49.4215 38.7491C50.4417 38.5276 51.0977 37.5675 50.9881 36.5338L50.5154 32.5464ZM42.9733 20.0306C44.9773 20.0306 46.5805 21.692 46.5805 23.6858C46.5805 25.6793 44.9773 27.3409 42.9733 27.3409C42.281 27.3409 41.6253 27.1194 41.0787 26.7501C41.0423 25.2363 40.4593 23.8704 39.4755 22.8735C39.8399 21.2489 41.2972 20.0306 42.9733 20.0306V20.0306ZM39.1113 26.8239C39.1113 28.8174 37.5081 30.479 35.5042 30.479C33.5368 30.479 31.897 28.8545 31.897 26.8239C31.897 24.8303 33.5003 23.1688 35.5042 23.1688C37.4715 23.1688 39.1113 24.7933 39.1113 26.8239ZM27.9986 20.0306C29.7111 20.0306 31.132 21.249 31.4965 22.8735C30.5493 23.8704 29.93 25.2364 29.93 26.7502C29.3835 27.1195 28.7276 27.3409 27.9989 27.3409C25.9949 27.3409 24.3918 25.6796 24.3918 23.6858C24.4281 21.6552 26.031 20.0307 27.9987 20.0307L27.9986 20.0306ZM30.5127 47.5358C30.5127 47.7205 30.3305 47.9051 30.1119 47.9051H25.9218C25.7032 47.9051 25.5573 47.7205 25.521 47.5358L24.9745 38.1213C24.9382 37.6413 24.5738 37.2352 24.1 37.1983C23.3714 37.0876 22.6428 36.9768 21.9504 36.829L22.4242 32.8048C22.6428 30.8481 24.3189 29.3343 26.2499 29.3343H29.6749C29.9664 29.3343 30.2579 29.3711 30.5494 29.445C30.8409 29.9619 31.1687 30.4788 31.6059 30.8849C29.6748 31.6604 28.2175 33.4692 27.926 35.6845L27.4886 39.709C27.3793 40.7795 28.035 41.7025 29.0552 41.9243C29.5289 42.035 30.039 42.1089 30.5491 42.1829L30.6947 44.6565L30.5127 47.5358ZM38.5284 41.2963L38.0183 50.6739C38.0183 50.8954 37.8361 51.0432 37.6175 51.0432L33.391 51.043C33.1724 51.043 33.0266 50.8954 32.9902 50.6737L32.4438 41.2591C32.4075 40.7791 32.043 40.373 31.5693 40.3362C30.8407 40.2254 30.112 40.1147 29.4197 39.9669L29.8934 35.9427C30.112 33.9491 31.7881 32.4722 33.7555 32.4722H37.1804C39.1478 32.4722 40.7875 33.9488 41.0425 35.9427L41.5162 40.004C40.8239 40.1515 40.0952 40.2625 39.3666 40.3733C38.9292 40.4104 38.5648 40.8162 38.5284 41.2963L38.5284 41.2963ZM46.9084 37.1982C46.4347 37.2722 46.0705 37.6412 46.0339 38.1212L45.4875 47.5357C45.4875 47.7204 45.3053 47.9051 45.1231 47.9051H40.8965C40.7143 47.9051 40.5321 47.7204 40.5321 47.5357L40.3499 44.6929L40.4955 42.2192C41.0056 42.1453 41.4793 42.0346 41.9894 41.9607C43.0096 41.7392 43.6655 40.7791 43.556 39.7454L43.0822 35.7212C42.8271 33.5059 41.3698 31.697 39.4024 30.9216C39.8395 30.5154 40.1676 30.0354 40.4589 29.4817C40.7504 29.4078 41.0419 29.371 41.3334 29.371H44.7583C46.7257 29.371 48.4018 30.8476 48.6203 32.8415L49.0941 36.9028C48.3293 36.9767 47.637 37.0874 46.9084 37.1982L46.9084 37.1982Z" fill="white"/>
<defs>
<linearGradient id="paint0_linear_608_531" x1="1.3248e-07" y1="32.8089" x2="70.0221" y2="32.8089" gradientUnits="userSpaceOnUse">
<stop stop-color="#C90000"/>
<stop offset="1" stop-color="#620000"/>
</linearGradient>
</defs>
</svg>
