<svg width="78" height="78" viewBox="0 0 78 78" fill="none" xmlns="http://www.w3.org/2000/svg">
<rect width="78" height="78" rx="10" fill="url(#paint0_linear_533_128)"/>
<path d="M39 18C27.4031 18 18 27.4031 18 39C18 50.5969 27.4031 60 39 60C50.5969 60 60 50.5969 60 39C60 27.4031 50.5969 18 39 18ZM40.5 49.125C40.5 49.3312 40.3312 49.5 40.125 49.5H37.875C37.6688 49.5 37.5 49.3312 37.5 49.125V36.375C37.5 36.1688 37.6688 36 37.875 36H40.125C40.3312 36 40.5 36.1688 40.5 36.375V49.125ZM39 33C38.4112 32.988 37.8506 32.7456 37.4385 32.325C37.0263 31.9044 36.7955 31.3389 36.7955 30.75C36.7955 30.1611 37.0263 29.5956 37.4385 29.175C37.8506 28.7544 38.4112 28.512 39 28.5C39.5888 28.512 40.1494 28.7544 40.5616 29.175C40.9737 29.5956 41.2045 30.1611 41.2045 30.75C41.2045 31.3389 40.9737 31.9044 40.5616 32.325C40.1494 32.7456 39.5888 32.988 39 33Z" fill="white"/>
<defs>
<linearGradient id="paint0_linear_533_128" x1="1.47621e-07" y1="36.5585" x2="78.0246" y2="36.5585" gradientUnits="userSpaceOnUse">
<stop stop-color="#C90000"/>
<stop offset="1" stop-color="#620000"/>
</linearGradient>
</defs>
</svg>
