<svg width="70" height="70" viewBox="0 0 70 70" fill="none" xmlns="http://www.w3.org/2000/svg">
<rect width="70" height="70" rx="35" fill="url(#paint0_linear_608_519)"/>
<path d="M31.4075 33.7334C31.2405 33.7334 31.0803 33.8001 30.9622 33.9189C30.8442 34.0376 30.7778 34.1987 30.7778 34.3667V39.4334C30.7778 39.6013 30.8442 39.7624 30.9622 39.8812C31.0803 40 31.2405 40.0667 31.4075 40.0667C31.5745 40.0667 31.7346 40 31.8527 39.8812C31.9708 39.7624 32.0371 39.6013 32.0371 39.4334V34.3667C32.0371 34.1987 31.9708 34.0376 31.8527 33.9189C31.7346 33.8001 31.5745 33.7334 31.4075 33.7334ZM35.8149 24.8667C39.2918 24.8667 42.1113 23.8027 42.1113 22.4917C42.1113 21.1794 39.2918 20.1167 35.8149 20.1167C32.3381 20.1167 29.5186 21.1807 29.5186 22.4917C29.5186 23.804 32.3381 24.8667 35.8149 24.8667ZM35.8149 23.6C33.7283 23.6 32.0371 23.0326 32.0371 22.3334C32.0371 21.6342 33.7283 21.0667 35.8149 21.0667C37.9016 21.0667 39.5928 21.6342 39.5928 22.3334C39.5928 23.0326 37.9016 23.6 35.8149 23.6Z" fill="white"/>
<path d="M51.0017 23.8939C50.3119 23.1982 49.3804 22.7995 48.4038 22.7817C48.3497 21.4163 47.6936 20.2978 46.9078 19.4808C46.0981 18.6385 45.0491 17.995 43.9485 17.5111C41.7359 16.5383 38.8598 16 35.8123 16C32.7686 16 29.8912 16.5383 27.6799 17.5111C26.5793 17.995 25.529 18.6385 24.7206 19.4808C23.9008 20.3345 23.222 21.5163 23.222 22.9667V33.5889C22.6388 33.5017 22.0434 33.5533 21.4836 33.7394C20.9237 33.9255 20.415 34.241 19.9983 34.6605L19.1067 35.5561C18.7559 35.9089 18.4775 36.3279 18.2876 36.789C18.0977 37.25 18 37.7442 18 38.2433C18 38.7424 18.0977 39.2366 18.2876 39.6976C18.4775 40.1587 18.7559 40.5777 19.1067 40.9305L23.222 45.07V47.0333C23.222 48.4837 23.9008 49.6655 24.7206 50.5205C25.5303 51.3615 26.5805 52.0037 27.6811 52.4889C29.8924 53.4617 32.7686 54 35.8148 54C38.4341 54 40.9111 53.6023 42.9448 52.8853C44.1689 52.4534 45.3224 51.8733 46.253 51.1196C47.3536 50.2279 48.4076 48.8561 48.4076 47.0333V33.67L51.8933 30.1639C52.2441 29.811 52.5225 29.3921 52.7124 28.931C52.9023 28.4699 53 27.9757 53 27.4766C53 26.9776 52.9023 26.4834 52.7124 26.0223C52.5225 25.5612 52.2441 25.1423 51.8933 24.7894L51.003 23.8939H51.0017ZM25.7406 38.648V27.3303C26.136 27.6166 26.5604 27.8712 26.9999 28.0979V33.1C26.9999 33.268 27.0662 33.4291 27.1843 33.5478C27.3024 33.6666 27.4625 33.7333 27.6295 33.7333C27.7965 33.7333 27.9567 33.6666 28.0747 33.5478C28.1928 33.4291 28.2592 33.268 28.2592 33.1V28.6603C30.3823 29.4837 33.028 29.9333 35.8148 29.9333C38.8598 29.9333 41.7372 29.395 43.9472 28.4222C45.0491 27.9371 46.0993 27.2949 46.9078 26.4525C47.1748 26.1751 47.4266 25.8635 47.6445 25.519C47.8864 25.3608 48.175 25.2909 48.462 25.3211C48.749 25.3513 49.017 25.4798 49.2211 25.6849L50.1127 26.5817C50.3487 26.8193 50.4813 27.1414 50.4813 27.4773C50.4813 27.8131 50.3487 28.1353 50.1127 28.3728L45.889 32.6187V47.0333C45.889 47.7984 45.4483 48.5179 44.6726 49.1461C44.2694 49.466 43.8328 49.7408 43.3705 49.9657V44.5C43.3705 44.332 43.3041 44.1709 43.1861 44.0522C43.068 43.9334 42.9078 43.8667 42.7408 43.8667C42.5739 43.8667 42.4137 43.9334 42.2956 44.0522C42.1775 44.1709 42.1112 44.332 42.1112 44.5V50.4939C40.386 51.1019 38.1974 51.4667 35.8148 51.4667C30.2513 51.4667 25.7406 49.4818 25.7406 47.0333V44.0199L20.8873 39.1395C20.7703 39.0218 20.6774 38.8821 20.614 38.7284C20.5506 38.5746 20.518 38.4098 20.518 38.2433C20.518 38.0768 20.5506 37.912 20.614 37.7582C20.6774 37.6045 20.7703 37.4648 20.8873 37.3471L21.7789 36.4516C22.0151 36.2141 22.3353 36.0807 22.6692 36.0807C23.0031 36.0807 23.3234 36.2141 23.5595 36.4516L25.7406 38.648ZM45.889 22.9667C45.889 25.4151 41.3783 27.4 35.8148 27.4C30.2513 27.4 25.7406 25.4151 25.7406 22.9667C25.7406 20.5182 30.2513 18.5333 35.8148 18.5333C41.3783 18.5333 45.889 20.5182 45.889 22.9667Z" fill="white"/>
<defs>
<linearGradient id="paint0_linear_608_519" x1="1.3248e-07" y1="32.8089" x2="70.0221" y2="32.8089" gradientUnits="userSpaceOnUse">
<stop stop-color="#C90000"/>
<stop offset="1" stop-color="#620000"/>
</linearGradient>
</defs>
</svg>
