<svg width="12" height="12" viewBox="0 0 12 12" fill="none" xmlns="http://www.w3.org/2000/svg">
<path d="M11.2478 12C4.8495 12.009 -0.00674297 7.09499 7.02802e-06 0.752249C7.02802e-06 0.337499 0.336007 0 0.750007 0H2.73001C3.10126 0 3.41701 0.273 3.47176 0.640499C3.60233 1.52179 3.8587 2.37978 4.23301 3.18825L4.31025 3.35475C4.36215 3.46679 4.37331 3.59343 4.34182 3.71282C4.31033 3.83221 4.23816 3.93687 4.13775 4.00875C3.52426 4.44675 3.29026 5.32799 3.76801 6.01499C4.36949 6.87999 5.12021 7.63096 5.985 8.23274C6.67275 8.70974 7.554 8.47574 7.99125 7.86299C8.06305 7.76229 8.1678 7.68985 8.28736 7.65821C8.40693 7.62657 8.53379 7.63773 8.646 7.68974L8.81175 7.76624C9.62025 8.14124 10.4783 8.39774 11.3595 8.52824C11.727 8.58299 12 8.89874 12 9.27074V11.25C12 11.3485 11.9806 11.4461 11.9428 11.5372C11.9051 11.6282 11.8498 11.7109 11.7801 11.7806C11.7103 11.8502 11.6276 11.9055 11.5365 11.9431C11.4454 11.9808 11.3478 12.0001 11.2493 12H11.2478Z" fill="#FAD537"/>
</svg>
