<svg width="70" height="70" viewBox="0 0 70 70" fill="none" xmlns="http://www.w3.org/2000/svg">
<rect width="70" height="70" rx="35" fill="url(#paint0_linear_545_426)"/>
<path d="M35.988 16.5296C35.8795 16.367 35.7326 16.2336 35.5602 16.1414C35.3879 16.0492 35.1954 16.0009 35 16.0009C34.8045 16.0009 34.612 16.0492 34.4397 16.1414C34.2673 16.2336 34.1204 16.367 34.012 16.5296L26.887 27.2171C26.768 27.396 26.6997 27.6037 26.6894 27.8183C26.6792 28.0328 26.7273 28.2461 26.8287 28.4355C26.9301 28.6249 27.0809 28.7832 27.2652 28.8936C27.4494 29.004 27.6602 29.0624 27.875 29.0625H28.1077L23.3055 36.7456C23.1931 36.9254 23.1309 37.1319 23.1254 37.3438C23.1198 37.5557 23.1711 37.7653 23.2738 37.9507C23.3766 38.1361 23.5271 38.2906 23.7097 38.3982C23.8924 38.5058 24.1005 38.5625 24.3125 38.5625H24.7661L20.8758 46.343C20.7851 46.524 20.7422 46.7253 20.7512 46.9276C20.7601 47.1299 20.8207 47.3265 20.9271 47.4988C21.0335 47.6712 21.1821 47.8134 21.359 47.912C21.5358 48.0107 21.735 48.0625 21.9375 48.0625H32.625V54H37.375V48.0625H48.0625C48.265 48.0625 48.4641 48.0107 48.6409 47.912C48.8178 47.8134 48.9665 47.6712 49.0729 47.4988C49.1792 47.3265 49.2398 47.1299 49.2488 46.9276C49.2577 46.7253 49.2148 46.524 49.1241 46.343L45.2362 38.5625H45.6898C45.9018 38.5625 46.1099 38.5058 46.2926 38.3982C46.4752 38.2906 46.6257 38.1361 46.7285 37.9507C46.8312 37.7653 46.8825 37.5557 46.8769 37.3438C46.8714 37.1319 46.8092 36.9254 46.6968 36.7456L41.8922 29.0625H42.125C42.3398 29.0624 42.5505 29.004 42.7348 28.8936C42.919 28.7832 43.0699 28.6249 43.1712 28.4355C43.2726 28.2461 43.3208 28.0328 43.3105 27.8183C43.3002 27.6037 43.232 27.396 43.113 27.2171L35.988 16.5296Z" fill="white"/>
<defs>
<linearGradient id="paint0_linear_545_426" x1="1.3248e-07" y1="32.8089" x2="70.0221" y2="32.8089" gradientUnits="userSpaceOnUse">
<stop stop-color="#C90000"/>
<stop offset="1" stop-color="#620000"/>
</linearGradient>
</defs>
</svg>
